<svg width="15" height="12" viewBox="0 0 24 18" fill="none" xmlns="http://www.w3.org/2000/svg">
<path d="M20.1668 0.833496H9.46842C8.54048 0.834313 7.65084 1.2036 6.99509 1.86016L0.671758 8.17183C0.562408 8.28029 0.475615 8.40932 0.416385 8.55149C0.357155 8.69366 0.32666 8.84615 0.32666 9.00016C0.32666 9.15418 0.357155 9.30667 0.416385 9.44884C0.475615 9.59101 0.562408 9.72004 0.671758 9.8285L6.99509 16.1402C7.65084 16.7967 8.54048 17.166 9.46842 17.1668H20.1668C21.095 17.1668 21.9853 16.7981 22.6416 16.1417C23.298 15.4853 23.6668 14.5951 23.6668 13.6668V4.3335C23.6668 3.40524 23.298 2.515 22.6416 1.85862C21.9853 1.20225 21.095 0.833496 20.1668 0.833496ZM21.3334 13.6668C21.3334 13.9762 21.2105 14.273 20.9917 14.4918C20.7729 14.7106 20.4762 14.8335 20.1668 14.8335H9.46842C9.15953 14.8292 8.86366 14.7084 8.64009 14.4952L3.14509 9.00016L8.64009 3.50516C8.86366 3.29197 9.15953 3.17113 9.46842 3.16683H20.1668C20.4762 3.16683 20.7729 3.28975 20.9917 3.50854C21.2105 3.72733 21.3334 4.02408 21.3334 4.3335V13.6668ZM17.4951 5.8385C17.3866 5.72915 17.2576 5.64235 17.1154 5.58312C16.9733 5.52389 16.8208 5.4934 16.6668 5.4934C16.5127 5.4934 16.3603 5.52389 16.2181 5.58312C16.0759 5.64235 15.9469 5.72915 15.8384 5.8385L14.3334 7.35516L12.8284 5.8385C12.6087 5.61881 12.3108 5.49539 12.0001 5.49539C11.6894 5.49539 11.3914 5.61881 11.1718 5.8385C10.9521 6.05818 10.8287 6.35614 10.8287 6.66683C10.8287 6.97752 10.9521 7.27548 11.1718 7.49516L12.6884 9.00016L11.1718 10.5052C11.0624 10.6136 10.9756 10.7427 10.9164 10.8848C10.8572 11.027 10.8267 11.1795 10.8267 11.3335C10.8267 11.4875 10.8572 11.64 10.9164 11.7822C10.9756 11.9243 11.0624 12.0534 11.1718 12.1618C11.2802 12.2712 11.4092 12.358 11.5514 12.4172C11.6936 12.4764 11.8461 12.5069 12.0001 12.5069C12.1541 12.5069 12.3066 12.4764 12.4488 12.4172C12.5909 12.358 12.72 12.2712 12.8284 12.1618L14.3334 10.6452L15.8384 12.1618C15.9469 12.2712 16.0759 12.358 16.2181 12.4172C16.3603 12.4764 16.5127 12.5069 16.6668 12.5069C16.8208 12.5069 16.9733 12.4764 17.1154 12.4172C17.2576 12.358 17.3866 12.2712 17.4951 12.1618C17.6044 12.0534 17.6912 11.9243 17.7505 11.7822C17.8097 11.64 17.8402 11.4875 17.8402 11.3335C17.8402 11.1795 17.8097 11.027 17.7505 10.8848C17.6912 10.7427 17.6044 10.6136 17.4951 10.5052L15.9784 9.00016L17.4951 7.49516C17.6044 7.38671 17.6912 7.25767 17.7505 7.1155C17.8097 6.97333 17.8402 6.82084 17.8402 6.66683C17.8402 6.51282 17.8097 6.36033 17.7505 6.21816C17.6912 6.07599 17.6044 5.94695 17.4951 5.8385Z" fill="white"/>
</svg>
