<svg width="12" height="12" viewBox="0 0 12 12" fill="none" xmlns="http://www.w3.org/2000/svg">
<path d="M10.2136 0.313849L5.97093 4.55649L1.72829 0.313849C1.54076 0.126313 1.2864 0.0209561 1.02119 0.020956C0.755971 0.0209559 0.501617 0.126312 0.314081 0.313849C0.126544 0.501385 0.0211877 0.755739 0.0211878 1.02096C0.0211879 1.28617 0.126544 1.54053 0.314081 1.72806L4.55672 5.9707L0.314081 10.2133C0.126544 10.4009 0.0211879 10.6552 0.0211878 10.9205C0.0211877 11.1857 0.126544 11.44 0.314081 11.6276C0.501617 11.8151 0.755971 11.9205 1.02119 11.9205C1.2864 11.9205 1.54076 11.8151 1.72829 11.6276L5.97093 7.38492L10.2136 11.6276C10.4011 11.8151 10.6555 11.9205 10.9207 11.9205C11.1859 11.9205 11.4403 11.8151 11.6278 11.6276C11.8153 11.44 11.9207 11.1857 11.9207 10.9205C11.9207 10.6552 11.8153 10.4009 11.6278 10.2133L7.38515 5.9707L11.6278 1.72806C11.8153 1.54053 11.9207 1.28617 11.9207 1.02096C11.9207 0.755739 11.8153 0.501386 11.6278 0.313849C11.4403 0.126313 11.1859 0.0209554 10.9207 0.0209554C10.6555 0.0209554 10.4011 0.126312 10.2136 0.313849Z" fill="#074A74"/>
</svg>
