<svg width="24" height="23" viewBox="0 0 34 33" fill="none" xmlns="http://www.w3.org/2000/svg">
<circle cx="16.9297" cy="16.5" r="16.5" fill="#074A74" fill-opacity="0.2"/>
<path d="M25.096 17.0026C24.8574 17.0026 24.6285 17.0974 24.4598 17.2661C24.2911 17.4349 24.1963 17.6637 24.1963 17.9023V23.3008C24.1963 23.5394 24.1015 23.7683 23.9328 23.937C23.764 24.1057 23.5352 24.2005 23.2965 24.2005H10.7002C10.4616 24.2005 10.2327 24.1057 10.064 23.937C9.89525 23.7683 9.80045 23.5394 9.80045 23.3008V10.7044C9.80045 10.4658 9.89525 10.237 10.064 10.0682C10.2327 9.89949 10.4616 9.8047 10.7002 9.8047H16.0986C16.3373 9.8047 16.5661 9.7099 16.7348 9.54117C16.9036 9.37243 16.9984 9.14358 16.9984 8.90496C16.9984 8.66633 16.9036 8.43748 16.7348 8.26874C16.5661 8.10001 16.3373 8.00522 16.0986 8.00522H10.7002C9.98432 8.00522 9.29776 8.2896 8.79156 8.7958C8.28536 9.302 8.00098 9.98856 8.00098 10.7044V23.3008C8.00098 24.0167 8.28536 24.7032 8.79156 25.2094C9.29776 25.7156 9.98432 26 10.7002 26H23.2965C24.0124 26 24.699 25.7156 25.2052 25.2094C25.7114 24.7032 25.9958 24.0167 25.9958 23.3008V17.9023C25.9958 17.6637 25.901 17.4349 25.7322 17.2661C25.5635 17.0974 25.3346 17.0026 25.096 17.0026ZM11.5999 17.6864V21.5013C11.5999 21.7399 11.6947 21.9688 11.8635 22.1375C12.0322 22.3063 12.261 22.401 12.4997 22.401H16.3146C16.433 22.4017 16.5504 22.379 16.66 22.3343C16.7696 22.2895 16.8693 22.2235 16.9534 22.1401L23.1796 15.9049L25.7348 13.4037C25.8192 13.32 25.8861 13.2205 25.9318 13.1109C25.9775 13.0012 26.001 12.8836 26.001 12.7648C26.001 12.6461 25.9775 12.5285 25.9318 12.4188C25.8861 12.3092 25.8192 12.2097 25.7348 12.126L21.9199 8.26614C21.8363 8.18181 21.7368 8.11487 21.6271 8.0692C21.5175 8.02352 21.3999 8 21.2811 8C21.1624 8 21.0447 8.02352 20.9351 8.0692C20.8255 8.11487 20.726 8.18181 20.6423 8.26614L18.105 10.8124L11.8609 17.0476C11.7775 17.1317 11.7115 17.2314 11.6667 17.341C11.6219 17.4506 11.5992 17.568 11.5999 17.6864ZM21.2811 10.1736L23.8274 12.7199L22.5498 13.9975L20.0035 11.4512L21.2811 10.1736ZM13.3994 18.0553L18.7349 12.7199L21.2811 15.2661L15.9457 20.6016H13.3994V18.0553Z" fill="#074A74"/>
</svg>
