<svg width="24" height="23" viewBox="0 0 34 33" fill="none" xmlns="http://www.w3.org/2000/svg">
<circle cx="17.3574" cy="16.5" r="16.5" fill="#DB2721" fill-opacity="0.2"/>
<path d="M15.2222 22.4C15.458 22.4 15.6841 22.3052 15.8508 22.1364C16.0175 21.9676 16.1111 21.7387 16.1111 21.5V16.1C16.1111 15.8613 16.0175 15.6324 15.8508 15.4636C15.6841 15.2948 15.458 15.2 15.2222 15.2C14.9865 15.2 14.7604 15.2948 14.5937 15.4636C14.427 15.6324 14.3333 15.8613 14.3333 16.1V21.5C14.3333 21.7387 14.427 21.9676 14.5937 22.1364C14.7604 22.3052 14.9865 22.4 15.2222 22.4ZM24.1111 11.6H20.5556V10.7C20.5556 9.98392 20.2746 9.29716 19.7745 8.79081C19.2744 8.28446 18.5961 8 17.8889 8H16.1111C15.4039 8 14.7256 8.28446 14.2255 8.79081C13.7254 9.29716 13.4444 9.98392 13.4444 10.7V11.6H9.88889C9.65314 11.6 9.42705 11.6948 9.26035 11.8636C9.09365 12.0324 9 12.2613 9 12.5C9 12.7387 9.09365 12.9676 9.26035 13.1364C9.42705 13.3052 9.65314 13.4 9.88889 13.4H10.7778V23.3C10.7778 24.0161 11.0587 24.7028 11.5588 25.2092C12.0589 25.7155 12.7372 26 13.4444 26H20.5556C21.2628 26 21.9411 25.7155 22.4412 25.2092C22.9413 24.7028 23.2222 24.0161 23.2222 23.3V13.4H24.1111C24.3469 13.4 24.573 13.3052 24.7397 13.1364C24.9064 12.9676 25 12.7387 25 12.5C25 12.2613 24.9064 12.0324 24.7397 11.8636C24.573 11.6948 24.3469 11.6 24.1111 11.6ZM15.2222 10.7C15.2222 10.4613 15.3159 10.2324 15.4826 10.0636C15.6493 9.89482 15.8754 9.8 16.1111 9.8H17.8889C18.1246 9.8 18.3507 9.89482 18.5174 10.0636C18.6841 10.2324 18.7778 10.4613 18.7778 10.7V11.6H15.2222V10.7ZM21.4444 23.3C21.4444 23.5387 21.3508 23.7676 21.1841 23.9364C21.0174 24.1052 20.7913 24.2 20.5556 24.2H13.4444C13.2087 24.2 12.9826 24.1052 12.8159 23.9364C12.6492 23.7676 12.5556 23.5387 12.5556 23.3V13.4H21.4444V23.3ZM18.7778 22.4C19.0135 22.4 19.2396 22.3052 19.4063 22.1364C19.573 21.9676 19.6667 21.7387 19.6667 21.5V16.1C19.6667 15.8613 19.573 15.6324 19.4063 15.4636C19.2396 15.2948 19.0135 15.2 18.7778 15.2C18.542 15.2 18.3159 15.2948 18.1492 15.4636C17.9825 15.6324 17.8889 15.8613 17.8889 16.1V21.5C17.8889 21.7387 17.9825 21.9676 18.1492 22.1364C18.3159 22.3052 18.542 22.4 18.7778 22.4Z" fill="#DB2721"/>
</svg>
