<svg width="14" height="15" viewBox="0 0 14 15" fill="none" xmlns="http://www.w3.org/2000/svg">
<path d="M12.625 0.812012H1.375C1.07673 0.812347 0.790781 0.930981 0.579875 1.14189C0.368969 1.35279 0.250335 1.63875 0.25 1.93701V6.06203C0.25 12.352 5.58153 14.438 6.65026 14.7923C6.87707 14.8692 7.1229 14.8692 7.34971 14.7923C8.41847 14.438 13.75 12.3521 13.75 6.06203V1.93701C13.7497 1.63875 13.631 1.35279 13.4201 1.14189C13.2092 0.930981 12.9233 0.812347 12.625 0.812012ZM6.99983 13.723C6.10558 13.4257 1.91487 11.7814 1.42276 6.99986H7.00038V1.93701H12.625V6.06203C12.6252 6.37525 12.6092 6.68827 12.5773 6.99986H7.00038V13.7228L6.99983 13.723Z" fill="#1C293B"/>
</svg>
