<svg width="13" height="13" viewBox="0 0 13 13" fill="none" xmlns="http://www.w3.org/2000/svg">
<path d="M12.042 5.70817H7.29199V0.958171C7.29199 0.748208 7.20858 0.546844 7.06012 0.398378C6.91165 0.249912 6.71029 0.166504 6.50033 0.166504C6.29036 0.166504 6.089 0.249912 5.94053 0.398378C5.79207 0.546844 5.70866 0.748208 5.70866 0.958171V5.70817H0.958659C0.748696 5.70817 0.547332 5.79158 0.398866 5.94004C0.2504 6.08851 0.166992 6.28987 0.166992 6.49984C0.166992 6.7098 0.2504 6.91116 0.398866 7.05963C0.547332 7.2081 0.748696 7.2915 0.958659 7.2915H5.70866V12.0415C5.70866 12.2515 5.79207 12.4528 5.94053 12.6013C6.089 12.7498 6.29036 12.8332 6.50033 12.8332C6.71029 12.8332 6.91165 12.7498 7.06012 12.6013C7.20858 12.4528 7.29199 12.2515 7.29199 12.0415V7.2915H12.042C12.252 7.2915 12.4533 7.2081 12.6018 7.05963C12.7503 6.91116 12.8337 6.7098 12.8337 6.49984C12.8337 6.28987 12.7503 6.08851 12.6018 5.94004C12.4533 5.79158 12.252 5.70817 12.042 5.70817Z" fill="white"/>
</svg>
