<svg width="50" height="50" viewBox="0 0 80 80" fill="none" xmlns="http://www.w3.org/2000/svg">
<path d="M40 0C32.0888 0 24.3552 2.34596 17.7772 6.74121C11.1992 11.1365 6.07234 17.3836 3.04484 24.6927C0.0173314 32.0017 -0.774802 40.0444 0.768607 47.8036C2.31202 55.5628 6.12164 62.6902 11.7157 68.2843C17.3098 73.8784 24.4372 77.688 32.1964 79.2314C39.9556 80.7748 47.9983 79.9827 55.3073 76.9552C62.6164 73.9277 68.8635 68.8008 73.2588 62.2228C77.654 55.6448 80 47.9112 80 40C79.988 29.395 75.7699 19.2278 68.271 11.7289C60.7722 4.23009 50.605 0.0119705 40 0ZM36.9231 21.5385C36.9231 20.7224 37.2473 19.9398 37.8243 19.3627C38.4013 18.7857 39.184 18.4615 40 18.4615C40.8161 18.4615 41.5987 18.7857 42.1757 19.3627C42.7528 19.9398 43.0769 20.7224 43.0769 21.5385V43.0769C43.0769 43.893 42.7528 44.6756 42.1757 45.2526C41.5987 45.8297 40.8161 46.1538 40 46.1538C39.184 46.1538 38.4013 45.8297 37.8243 45.2526C37.2473 44.6756 36.9231 43.893 36.9231 43.0769V21.5385ZM40 61.5384C39.0872 61.5384 38.1948 61.2678 37.4358 60.7606C36.6768 60.2535 36.0853 59.5326 35.736 58.6893C35.3866 57.8459 35.2952 56.9179 35.4733 56.0226C35.6514 55.1274 36.091 54.305 36.7364 53.6595C37.3819 53.014 38.2043 52.5745 39.0996 52.3964C39.9949 52.2183 40.9229 52.3097 41.7662 52.659C42.6096 53.0083 43.3304 53.5999 43.8376 54.3589C44.3447 55.1179 44.6154 56.0102 44.6154 56.9231C44.6154 58.1471 44.1291 59.3211 43.2636 60.1866C42.398 61.0522 41.2241 61.5384 40 61.5384Z" fill="#D54E49"/>
</svg>
