<svg width="650" height="512" viewBox="0 0 650 512" fill="none" xmlns="http://www.w3.org/2000/svg">
<g clip-path="url(#clip0_4050_2400)">
<path d="M337.969 423.695C430.584 423.695 505.664 348.616 505.664 256C505.664 163.385 430.584 88.3052 337.969 88.3052C245.354 88.3052 170.274 163.385 170.274 256C170.274 348.616 245.354 423.695 337.969 423.695Z" fill="#DBE8EC"/>
<path d="M564.583 220.904V202.794C564.583 199.341 563.212 196.029 560.77 193.587C558.328 191.145 555.016 189.773 551.562 189.773H505.603C502.15 189.773 498.838 188.401 496.396 185.959C493.954 183.517 492.582 180.206 492.582 176.752V158.643C492.582 155.189 493.954 151.877 496.396 149.435C498.838 146.993 502.15 145.622 505.603 145.622H507.054C510.508 145.622 513.82 144.25 516.262 141.808C518.703 139.366 520.075 136.054 520.075 132.601V114.491C520.075 111.038 518.703 107.726 516.262 105.284C513.82 102.842 510.508 101.47 507.054 101.47H173.135C169.682 101.47 166.37 102.842 163.928 105.284C161.486 107.726 160.114 111.038 160.114 114.491V132.601C160.114 136.054 161.486 139.366 163.928 141.808C166.37 144.25 169.682 145.622 173.135 145.622C176.589 145.622 179.9 146.993 182.342 149.435C184.784 151.877 186.156 155.189 186.156 158.643V176.752C186.156 180.206 184.784 183.517 182.342 185.959C179.9 188.401 176.589 189.773 173.135 189.773H122.782C119.329 189.773 116.017 191.145 113.575 193.587C111.133 196.029 109.761 199.341 109.761 202.794V220.904C109.761 224.357 111.133 227.669 113.575 230.111C116.017 232.553 119.329 233.924 122.782 233.924H142.54C144.25 233.924 145.943 234.261 147.523 234.916C149.103 235.57 150.538 236.529 151.747 237.738C152.956 238.947 153.915 240.383 154.57 241.962C155.224 243.542 155.561 245.235 155.561 246.945V265.055C155.561 268.508 154.189 271.82 151.747 274.262C149.305 276.704 145.993 278.076 142.54 278.076H142.492C139.039 278.076 135.727 279.448 133.285 281.89C130.843 284.332 129.471 287.643 129.471 291.097V309.206C129.471 312.66 130.843 315.972 133.285 318.414C135.727 320.855 139.039 322.227 142.492 322.227H145.351C147.061 322.227 148.754 322.564 150.334 323.218C151.913 323.873 153.349 324.832 154.558 326.041C155.767 327.25 156.726 328.686 157.381 330.265C158.035 331.845 158.372 333.538 158.372 335.248V353.358C158.372 356.811 157 360.123 154.558 362.565C152.116 365.007 148.804 366.379 145.351 366.379H98.4374C94.984 366.379 91.6721 367.751 89.2302 370.193C86.7883 372.634 85.4165 375.946 85.4165 379.4V397.509C85.4165 400.963 86.7884 404.275 89.2302 406.716C91.6721 409.158 94.984 410.53 98.4374 410.53H514.045C517.498 410.53 520.81 409.158 523.252 406.716C525.694 404.275 527.066 400.963 527.066 397.509V379.4C527.066 375.946 525.694 372.634 523.252 370.193C520.81 367.751 517.498 366.379 514.045 366.379H502.755C499.302 366.379 495.99 365.007 493.548 362.565C491.106 360.123 489.734 356.811 489.734 353.358V335.248C489.734 331.795 491.106 328.483 493.548 326.041C495.99 323.599 499.302 322.227 502.755 322.227H529.375C532.829 322.227 536.141 320.855 538.582 318.414C541.024 315.972 542.396 312.66 542.396 309.206V291.097C542.396 287.643 541.024 284.332 538.582 281.89C536.141 279.448 532.829 278.076 529.375 278.076H521.3C517.847 278.076 514.535 276.704 512.093 274.262C509.651 271.82 508.279 268.508 508.279 265.055V246.945C508.279 243.492 509.651 240.18 512.093 237.738C514.535 235.296 517.847 233.924 521.3 233.924H551.562C555.016 233.924 558.328 232.553 560.77 230.111C563.212 227.669 564.583 224.357 564.583 220.904Z" fill="#DBE8EC"/>
<path d="M384.775 92.1592H417.077" stroke="#B9D4DB" stroke-width="3" stroke-miterlimit="10" stroke-linecap="round"/>
<path d="M384.775 101.47H417.077" stroke="#B9D4DB" stroke-width="3" stroke-miterlimit="10" stroke-linecap="round"/>
<path d="M384.775 110.781H417.077" stroke="#B9D4DB" stroke-width="3" stroke-miterlimit="10" stroke-linecap="round"/>
<path d="M119.153 289.908H151.456" stroke="#B9D4DB" stroke-width="3" stroke-miterlimit="10" stroke-linecap="round"/>
<path d="M119.153 299.218H151.456" stroke="#B9D4DB" stroke-width="3" stroke-miterlimit="10" stroke-linecap="round"/>
<path d="M119.153 308.529H151.456" stroke="#B9D4DB" stroke-width="3" stroke-miterlimit="10" stroke-linecap="round"/>
<path d="M505.663 375.236H537.966" stroke="#B9D4DB" stroke-width="3" stroke-miterlimit="10" stroke-linecap="round"/>
<path d="M505.663 384.546H537.966" stroke="#B9D4DB" stroke-width="3" stroke-miterlimit="10" stroke-linecap="round"/>
<path d="M505.663 393.857H537.966" stroke="#B9D4DB" stroke-width="3" stroke-miterlimit="10" stroke-linecap="round"/>
<path d="M546.78 216.154C554.406 216.154 560.587 209.972 560.587 202.347C560.587 194.722 554.406 188.54 546.78 188.54C539.155 188.54 532.973 194.722 532.973 202.347C532.973 209.972 539.155 216.154 546.78 216.154Z" fill="#B9D4DB"/>
<path d="M510.344 219.471C514.298 219.471 517.503 216.266 517.503 212.312C517.503 208.358 514.298 205.153 510.344 205.153C506.39 205.153 503.185 208.358 503.185 212.312C503.185 216.266 506.39 219.471 510.344 219.471Z" fill="#B9D4DB"/>
<path d="M528.523 178.79C534.172 178.79 538.751 174.211 538.751 168.562C538.751 162.913 534.172 158.334 528.523 158.334C522.874 158.334 518.295 162.913 518.295 168.562C518.295 174.211 522.874 178.79 528.523 178.79Z" fill="#B9D4DB"/>
<path d="M164.38 405.83C173.453 405.83 180.808 398.475 180.808 389.402C180.808 380.329 173.453 372.974 164.38 372.974C155.307 372.974 147.952 380.329 147.952 389.402C147.952 398.475 155.307 405.83 164.38 405.83Z" fill="#B9D4DB"/>
<path d="M131.897 406.155C136.623 406.155 140.454 402.324 140.454 397.598C140.454 392.872 136.623 389.041 131.897 389.041C127.171 389.041 123.34 392.872 123.34 397.598C123.34 402.324 127.171 406.155 131.897 406.155Z" fill="#B9D4DB"/>
<path d="M121.847 374.128C124.573 374.128 126.783 371.918 126.783 369.192C126.783 366.466 124.573 364.256 121.847 364.256C119.121 364.256 116.911 366.466 116.911 369.192C116.911 371.918 119.121 374.128 121.847 374.128Z" fill="#B9D4DB"/>
<path d="M146.321 368.382C152.856 368.382 158.154 363.084 158.154 356.549C158.154 350.014 152.856 344.716 146.321 344.716C139.786 344.716 134.488 350.014 134.488 356.549C134.488 363.084 139.786 368.382 146.321 368.382Z" fill="#B9D4DB"/>
<path d="M250.43 151.891C259.503 151.891 266.858 144.536 266.858 135.463C266.858 126.39 259.503 119.035 250.43 119.035C241.357 119.035 234.002 126.39 234.002 135.463C234.002 144.536 241.357 151.891 250.43 151.891Z" fill="#B9D4DB"/>
<path d="M251.096 110.525C255.822 110.525 259.653 106.694 259.653 101.968C259.653 97.2422 255.822 93.4111 251.096 93.4111C246.37 93.4111 242.539 97.2422 242.539 101.968C242.539 106.694 246.37 110.525 251.096 110.525Z" fill="#B9D4DB"/>
<path d="M308.091 114.374C312.181 114.374 315.497 111.058 315.497 106.968C315.497 102.878 312.181 99.562 308.091 99.562C304.001 99.562 300.685 102.878 300.685 106.968C300.685 111.058 304.001 114.374 308.091 114.374Z" fill="#B9D4DB"/>
<path d="M281.147 104.707C283.873 104.707 286.083 102.497 286.083 99.771C286.083 97.0449 283.873 94.835 281.147 94.835C278.421 94.835 276.211 97.0449 276.211 99.771C276.211 102.497 278.421 104.707 281.147 104.707Z" fill="#B9D4DB"/>
<path d="M286.883 138.546C293.418 138.546 298.716 133.248 298.716 126.713C298.716 120.178 293.418 114.88 286.883 114.88C280.348 114.88 275.05 120.178 275.05 126.713C275.05 133.248 280.348 138.546 286.883 138.546Z" fill="#B9D4DB"/>
<path d="M483.963 291.561L374.753 350.388V216.949L483.963 182.855V291.561Z" fill="#E06714"/>
<path d="M374.753 216.949L245.832 203.907L219.41 164.926C219.105 164.475 218.928 163.949 218.898 163.405C218.869 162.861 218.988 162.319 219.243 161.838C219.499 161.356 219.88 160.953 220.347 160.673C220.814 160.392 221.349 160.243 221.894 160.243H343.339C343.887 160.243 344.425 160.393 344.894 160.678C345.362 160.962 345.745 161.369 345.998 161.855L374.753 216.949Z" fill="#F9AE2B"/>
<path d="M245.832 337.346L200.808 327.978C200.133 327.838 199.527 327.469 199.092 326.934C198.657 326.399 198.419 325.731 198.419 325.041V197.73C198.419 197.285 198.519 196.844 198.71 196.442C198.902 196.039 199.181 195.684 199.526 195.403C199.872 195.122 200.277 194.921 200.71 194.816C201.143 194.71 201.594 194.703 202.031 194.793L245.832 203.907V337.346ZM418.219 364.859L374.753 350.388V216.949L420.114 232.051C420.711 232.25 421.231 232.632 421.6 233.143C421.968 233.653 422.166 234.267 422.166 234.897V362.012C422.166 362.488 422.053 362.956 421.837 363.379C421.62 363.802 421.306 364.168 420.921 364.446C420.535 364.724 420.089 364.906 419.619 364.978C419.15 365.05 418.669 365.009 418.219 364.859Z" fill="#F9AE2B"/>
<path d="M374.753 350.388L245.832 337.346V203.907L374.753 216.949V350.388Z" fill="#409CB5"/>
<path d="M341.97 386.091L210.426 380.842L245.832 337.346L374.753 350.388L344.345 385.071C344.051 385.408 343.684 385.674 343.273 385.85C342.862 386.027 342.417 386.109 341.97 386.091Z" fill="#F9AE2B"/>
<path d="M374.753 216.949L483.963 182.855L350.473 170.429L374.753 216.949Z" fill="#EE781D"/>
<path d="M245.832 337.346L374.753 277.148V216.949L245.832 203.907V337.346Z" fill="#25788E"/>
<path d="M253.562 293.863C253.562 293.863 267.647 287.701 271.388 292.102C275.13 296.504 283.492 298.484 283.492 298.484L290.755 286.16L310.561 295.403L321.345 310.148L314.303 327.534C314.303 327.534 299.998 327.314 293.176 330.175C286.353 333.036 268.527 333.256 268.527 333.256L260.385 317.631C260.385 317.631 250.041 302.446 253.562 293.863Z" fill="#DBE8EC"/>
<path d="M283.492 298.484C284.847 299.684 286.148 300.929 287.423 302.196C288.709 303.453 289.947 304.751 291.189 306.045C292.405 307.361 293.654 308.649 294.833 309.996C296.022 311.334 297.233 312.654 298.383 314.026L295.847 315.28C295.272 312.888 294.705 310.493 294.196 308.086C293.677 305.68 293.232 303.258 292.767 300.841C291.919 295.987 291.129 291.121 290.755 286.16C292.551 290.799 293.931 295.532 295.254 300.278C295.874 302.661 296.515 305.039 297.081 307.433C297.657 309.826 298.175 312.231 298.685 314.638L298.69 314.659C298.757 314.977 298.716 315.308 298.574 315.6C298.431 315.892 298.195 316.127 297.902 316.269C297.61 316.411 297.279 316.451 296.961 316.383C296.644 316.315 296.358 316.142 296.15 315.893C295.004 314.518 293.919 313.093 292.813 311.685C291.696 310.286 290.649 308.829 289.569 307.399C288.516 305.947 287.458 304.499 286.448 303.01C285.428 301.531 284.433 300.03 283.492 298.484Z" fill="#BAD5DB"/>
<path d="M310.561 295.403C309.721 297.215 308.776 298.955 307.834 300.698C306.867 302.423 305.894 304.145 304.867 305.83C303.87 307.535 302.798 309.188 301.752 310.86C300.697 312.526 299.583 314.151 298.502 315.799L296.974 313.495C298.978 313.083 300.99 312.709 303.005 312.352C305.029 312.036 307.04 311.66 309.074 311.393C311.1 311.092 313.138 310.847 315.179 310.617C317.227 310.424 319.271 310.215 321.345 310.148C319.405 310.884 317.437 311.477 315.472 312.085C313.5 312.657 311.524 313.214 309.538 313.715C307.558 314.25 305.556 314.675 303.567 315.161C301.569 315.606 299.568 316.034 297.559 316.424L297.528 316.431C297.237 316.487 296.936 316.455 296.664 316.339C296.391 316.224 296.16 316.029 295.999 315.78C295.838 315.532 295.755 315.241 295.761 314.945C295.767 314.649 295.861 314.362 296.031 314.12C297.166 312.508 298.267 310.874 299.429 309.281C300.598 307.693 301.741 306.087 302.96 304.533C304.15 302.959 305.392 301.421 306.641 299.887C307.915 298.37 309.186 296.851 310.561 295.403Z" fill="#BAD5DB"/>
<path d="M314.302 327.534C312.678 326.764 311.141 325.875 309.595 324.997C308.07 324.093 306.558 323.17 305.076 322.206C302.095 320.302 299.21 318.268 296.379 316.162L298.545 315.734C296.833 318.524 295.059 321.276 293.156 323.95C292.224 325.299 291.236 326.614 290.242 327.926C289.226 329.223 288.209 330.521 287.088 331.755C287.663 330.19 288.343 328.688 289.023 327.186C289.726 325.699 290.434 324.214 291.199 322.764C292.688 319.84 294.307 316.993 295.988 314.185C296.088 314.017 296.22 313.871 296.377 313.754C296.534 313.638 296.712 313.553 296.902 313.506C297.091 313.458 297.288 313.448 297.481 313.477C297.675 313.505 297.86 313.572 298.028 313.672L298.141 313.747L298.154 313.757C301.001 315.842 303.795 318 306.492 320.288C307.85 321.419 309.178 322.592 310.491 323.783C311.785 325.002 313.088 326.208 314.302 327.534Z" fill="#BAD5DB"/>
<path d="M253.562 293.863C261.165 296.718 268.581 299.96 275.97 303.259C279.648 304.943 283.334 306.611 286.978 308.365C290.641 310.079 294.27 311.864 297.897 313.652L297.908 313.658C298.139 313.772 298.336 313.945 298.478 314.16C298.62 314.375 298.702 314.624 298.716 314.881C298.73 315.138 298.675 315.394 298.558 315.623C298.44 315.852 298.263 316.046 298.046 316.184C295.651 317.708 293.205 319.154 290.785 320.638C288.368 322.129 285.899 323.538 283.459 324.991C280.995 326.408 278.542 327.841 276.049 329.211C273.568 330.6 271.06 331.949 268.527 333.256C270.782 331.511 273.064 329.81 275.375 328.152C277.672 326.474 280.008 324.857 282.334 323.224C284.684 321.629 287.005 319.988 289.379 318.43C291.748 316.864 294.092 315.26 296.487 313.735L296.635 316.267C292.979 314.539 289.324 312.808 285.703 311.006C282.063 309.244 278.465 307.395 274.858 305.563C267.679 301.83 260.527 298.04 253.562 293.863Z" fill="#BAD5DB"/>
<path d="M259.485 316.225C262.056 315.254 264.529 314.04 266.87 312.6C269.049 311.314 270.864 309.494 272.143 307.311C273.251 305.076 273.649 302.556 273.286 300.088C272.912 297.371 272.277 294.696 271.388 292.102C273.365 294.25 274.808 296.833 275.602 299.642C276.509 302.661 276.218 305.914 274.788 308.724C273.246 311.417 270.844 313.514 267.967 314.679C265.297 315.842 262.394 316.371 259.485 316.225ZM281.978 307.579C281.815 309.63 281.463 311.661 280.924 313.647C280.412 315.6 279.794 317.524 279.074 319.411C278.359 321.299 277.541 323.147 276.623 324.945C275.704 326.786 274.614 328.537 273.368 330.174C273.527 328.123 273.879 326.091 274.418 324.105C274.93 322.152 275.549 320.228 276.272 318.343C276.99 316.455 277.81 314.608 278.727 312.81C279.647 310.969 280.735 309.218 281.978 307.579Z" fill="#BAD5DB"/>
<path d="M252.831 366.414C252.831 366.414 242.102 377.425 236.979 374.756C231.856 372.086 223.363 373.399 223.363 373.399L221.274 387.55L199.445 386.443L183.904 376.841L183.884 358.083C183.884 358.083 197.22 352.903 202.463 347.684C207.707 342.466 224.139 335.552 224.139 335.552L237.564 346.963C237.564 346.963 252.863 357.137 252.831 366.414Z" fill="#C0D8DD"/>
<path d="M223.363 373.399C220.037 372.031 216.787 370.519 213.551 368.982C211.943 368.194 210.322 367.431 208.729 366.615C207.132 365.807 205.526 365.016 203.945 364.177L205.196 362.767C208.059 366.77 210.823 370.841 213.535 374.95C216.213 379.081 218.86 383.235 221.274 387.551C218.062 383.79 215.085 379.867 212.139 375.922C209.226 371.954 206.366 367.949 203.604 363.875L203.597 363.865C203.475 363.685 203.417 363.47 203.432 363.254C203.447 363.038 203.534 362.833 203.678 362.672C203.823 362.511 204.018 362.403 204.231 362.365C204.444 362.328 204.664 362.363 204.855 362.464C206.435 363.305 207.99 364.194 209.553 365.066C211.12 365.929 212.659 366.846 214.212 367.739C217.297 369.56 220.368 371.408 223.363 373.399Z" fill="#9FC6CC"/>
<path d="M199.445 386.443C199.873 382.504 200.49 378.605 201.171 374.72C201.841 370.833 202.62 366.97 203.426 363.112L204.949 364.152L199.802 367.498C198.062 368.576 196.345 369.689 194.587 370.74C192.841 371.809 191.075 372.848 189.303 373.877C187.517 374.887 185.737 375.904 183.904 376.841C185.487 375.525 187.123 374.289 188.753 373.045C190.397 371.821 192.047 370.606 193.717 369.422C195.375 368.219 197.074 367.078 198.75 365.904L203.852 362.489C204.017 362.379 204.211 362.32 204.409 362.321C204.607 362.322 204.801 362.383 204.965 362.494C205.128 362.606 205.255 362.765 205.328 362.949C205.401 363.133 205.417 363.335 205.374 363.529C204.528 367.379 203.656 371.222 202.674 375.043C201.703 378.865 200.668 382.674 199.445 386.443Z" fill="#9FC6CC"/>
<path d="M183.884 358.084C185.651 358.297 187.393 358.606 189.138 358.906C190.877 359.227 192.612 359.563 194.339 359.932C197.796 360.657 201.228 361.481 204.646 362.358L203.419 363.163C203.701 361.551 203.95 359.934 204.258 358.326C204.563 356.717 204.855 355.106 205.201 353.504C205.867 350.296 206.594 347.098 207.508 343.929C207.387 347.225 207.077 350.49 206.707 353.746C206.535 355.375 206.31 356.997 206.097 358.62C205.887 360.244 205.618 361.858 205.381 363.478C205.344 363.735 205.206 363.967 204.997 364.123C204.788 364.278 204.526 364.344 204.269 364.307L204.17 364.287L204.155 364.283C200.734 363.415 197.327 362.493 193.946 361.472C192.253 360.969 190.569 360.432 188.889 359.88C187.214 359.307 185.537 358.743 183.884 358.084Z" fill="#9FC6CC"/>
<path d="M252.831 366.414C248.78 366.403 244.735 366.289 240.689 366.187C236.644 366.068 232.603 365.896 228.561 365.719C220.482 365.33 212.407 364.853 204.339 364.286L204.331 364.286C204.16 364.273 203.995 364.216 203.853 364.119C203.712 364.022 203.598 363.889 203.525 363.733C203.452 363.578 203.421 363.406 203.436 363.235C203.452 363.064 203.512 362.9 203.612 362.76C205.257 360.446 206.953 358.168 208.624 355.873C210.29 353.574 212.01 351.313 213.7 349.031C215.418 346.769 217.113 344.491 218.869 342.256C220.62 340.017 222.343 337.758 224.139 335.552C222.645 337.973 221.078 340.342 219.539 342.732C218.006 345.125 216.411 347.475 214.839 349.841C213.24 352.187 211.669 354.554 210.046 356.884C208.427 359.216 206.834 361.567 205.189 363.881L204.462 362.355C212.538 362.811 220.607 363.365 228.67 364.016C232.701 364.355 236.731 364.698 240.758 365.095C244.784 365.509 248.811 365.911 252.831 366.414Z" fill="#9FC6CC"/>
<path d="M238.926 347.927C236.781 349.66 234.841 351.634 233.145 353.808C231.494 355.849 230.427 358.299 230.058 360.897C229.919 362.165 230.023 363.448 230.366 364.677C230.695 365.947 231.205 367.164 231.881 368.289C233.324 370.634 235.035 372.804 236.979 374.756C234.469 373.359 232.285 371.444 230.572 369.139C228.716 366.731 227.824 363.719 228.07 360.689C228.483 357.712 229.846 354.948 231.955 352.807C233.912 350.711 236.287 349.048 238.926 347.927ZM221.342 364.403C220.908 362.416 220.605 360.403 220.433 358.376C220.243 356.365 220.121 354.352 220.079 352.338C220.029 350.323 220.065 348.307 220.166 346.29C220.249 344.257 220.465 342.233 220.814 340.229C221.25 342.216 221.555 344.229 221.726 346.255C221.915 348.267 222.039 350.279 222.078 352.294C222.123 354.309 222.089 356.325 221.987 358.342C221.904 360.374 221.688 362.399 221.342 364.403Z" fill="#9FC6CC"/>
<path d="M184.743 505V476.88H188.543L190.183 482.32V505H184.743ZM204.183 505L187.503 483.4L188.543 476.88L205.223 498.48L204.183 505ZM204.183 505L202.623 499.72V476.88H208.103V505H204.183ZM222.326 505.4C220.379 505.4 218.619 504.96 217.046 504.08C215.499 503.173 214.259 501.96 213.326 500.44C212.419 498.893 211.966 497.173 211.966 495.28C211.966 493.387 212.419 491.693 213.326 490.2C214.232 488.68 215.472 487.48 217.046 486.6C218.619 485.693 220.366 485.24 222.286 485.24C224.259 485.24 226.019 485.693 227.566 486.6C229.139 487.48 230.379 488.68 231.286 490.2C232.192 491.693 232.646 493.387 232.646 495.28C232.646 497.173 232.192 498.893 231.286 500.44C230.379 501.96 229.139 503.173 227.566 504.08C226.019 504.96 224.272 505.4 222.326 505.4ZM222.286 500.52C223.272 500.52 224.139 500.307 224.886 499.88C225.659 499.427 226.246 498.813 226.646 498.04C227.072 497.24 227.286 496.333 227.286 495.32C227.286 494.307 227.072 493.413 226.646 492.64C226.219 491.867 225.632 491.267 224.886 490.84C224.139 490.387 223.272 490.16 222.286 490.16C221.326 490.16 220.472 490.387 219.726 490.84C218.979 491.267 218.392 491.867 217.966 492.64C217.539 493.413 217.326 494.307 217.326 495.32C217.326 496.333 217.539 497.24 217.966 498.04C218.392 498.813 218.979 499.427 219.726 499.88C220.472 500.307 221.326 500.52 222.286 500.52ZM248.392 493.24V489H254.912C256.245 489 257.272 488.667 257.992 488C258.738 487.307 259.112 486.36 259.112 485.16C259.112 484.067 258.738 483.16 257.992 482.44C257.272 481.693 256.245 481.32 254.912 481.32H248.392V476.88H255.392C257.205 476.88 258.792 477.24 260.152 477.96C261.538 478.653 262.605 479.613 263.352 480.84C264.125 482.067 264.512 483.48 264.512 485.08C264.512 486.733 264.125 488.173 263.352 489.4C262.605 490.6 261.538 491.547 260.152 492.24C258.765 492.907 257.152 493.24 255.312 493.24H248.392ZM244.392 505V476.88H249.832V505H244.392ZM259.752 505L250.472 492.84L255.472 491.28L266.352 505H259.752ZM277.564 505.4C275.537 505.4 273.737 504.973 272.164 504.12C270.591 503.24 269.337 502.04 268.404 500.52C267.497 499 267.044 497.267 267.044 495.32C267.044 493.4 267.484 491.693 268.364 490.2C269.271 488.68 270.497 487.48 272.044 486.6C273.591 485.693 275.311 485.24 277.204 485.24C279.071 485.24 280.711 485.667 282.124 486.52C283.564 487.347 284.684 488.493 285.484 489.96C286.311 491.4 286.724 493.04 286.724 494.88C286.724 495.227 286.697 495.587 286.644 495.96C286.617 496.307 286.551 496.707 286.444 497.16L270.204 497.2V493.28L284.004 493.24L281.884 494.88C281.831 493.733 281.617 492.773 281.244 492C280.897 491.227 280.377 490.64 279.684 490.24C279.017 489.813 278.191 489.6 277.204 489.6C276.164 489.6 275.257 489.84 274.484 490.32C273.711 490.773 273.111 491.427 272.684 492.28C272.284 493.107 272.084 494.093 272.084 495.24C272.084 496.413 272.297 497.44 272.724 498.32C273.177 499.173 273.817 499.84 274.644 500.32C275.471 500.773 276.431 501 277.524 501C278.511 501 279.404 500.84 280.204 500.52C281.004 500.173 281.697 499.667 282.284 499L285.364 502.08C284.431 503.173 283.284 504 281.924 504.56C280.591 505.12 279.137 505.4 277.564 505.4ZM296.605 505.44C295.511 505.44 294.431 505.293 293.365 505C292.325 504.707 291.365 504.307 290.485 503.8C289.605 503.267 288.845 502.627 288.205 501.88L291.325 498.72C291.991 499.467 292.765 500.027 293.645 500.4C294.525 500.773 295.498 500.96 296.565 500.96C297.418 500.96 298.058 500.84 298.485 500.6C298.938 500.36 299.165 500 299.165 499.52C299.165 498.987 298.925 498.573 298.445 498.28C297.991 497.987 297.391 497.747 296.645 497.56C295.898 497.347 295.111 497.12 294.285 496.88C293.485 496.613 292.711 496.28 291.965 495.88C291.218 495.453 290.605 494.88 290.125 494.16C289.671 493.413 289.445 492.453 289.445 491.28C289.445 490.053 289.738 488.987 290.325 488.08C290.938 487.173 291.805 486.467 292.925 485.96C294.045 485.453 295.365 485.2 296.885 485.2C298.485 485.2 299.925 485.48 301.205 486.04C302.511 486.6 303.591 487.44 304.445 488.56L301.285 491.72C300.698 491 300.031 490.48 299.285 490.16C298.565 489.84 297.778 489.68 296.925 489.68C296.151 489.68 295.551 489.8 295.125 490.04C294.725 490.28 294.525 490.613 294.525 491.04C294.525 491.52 294.751 491.893 295.205 492.16C295.685 492.427 296.298 492.667 297.045 492.88C297.791 493.067 298.565 493.293 299.365 493.56C300.191 493.8 300.965 494.147 301.685 494.6C302.431 495.053 303.031 495.653 303.485 496.4C303.965 497.147 304.205 498.107 304.205 499.28C304.205 501.173 303.525 502.68 302.165 503.8C300.805 504.893 298.951 505.44 296.605 505.44ZM315.978 505.4C314.271 505.4 312.751 505.04 311.418 504.32C310.111 503.6 309.085 502.6 308.338 501.32C307.591 500.04 307.218 498.56 307.218 496.88V485.68H312.498V496.76C312.498 497.56 312.631 498.253 312.898 498.84C313.165 499.4 313.565 499.827 314.098 500.12C314.631 500.413 315.258 500.56 315.978 500.56C317.071 500.56 317.925 500.227 318.538 499.56C319.151 498.893 319.458 497.96 319.458 496.76V485.68H324.698V496.88C324.698 498.587 324.325 500.08 323.578 501.36C322.858 502.64 321.831 503.64 320.498 504.36C319.191 505.053 317.685 505.4 315.978 505.4ZM328.871 505V476.08H334.111V505H328.871ZM341.594 505V477.64H346.834V505H341.594ZM337.074 490.28V485.68H351.354V490.28H337.074ZM362.673 505V476.88H368.113V505H362.673ZM366.673 493.48V488.64H380.833V493.48H366.673ZM366.673 481.68V476.88H381.513V481.68H366.673ZM393.654 505.4C391.707 505.4 389.947 504.96 388.374 504.08C386.827 503.173 385.587 501.96 384.654 500.44C383.747 498.893 383.294 497.173 383.294 495.28C383.294 493.387 383.747 491.693 384.654 490.2C385.561 488.68 386.801 487.48 388.374 486.6C389.947 485.693 391.694 485.24 393.614 485.24C395.587 485.24 397.347 485.693 398.894 486.6C400.467 487.48 401.707 488.68 402.614 490.2C403.521 491.693 403.974 493.387 403.974 495.28C403.974 497.173 403.521 498.893 402.614 500.44C401.707 501.96 400.467 503.173 398.894 504.08C397.347 504.96 395.601 505.4 393.654 505.4ZM393.614 500.52C394.601 500.52 395.467 500.307 396.214 499.88C396.987 499.427 397.574 498.813 397.974 498.04C398.401 497.24 398.614 496.333 398.614 495.32C398.614 494.307 398.401 493.413 397.974 492.64C397.547 491.867 396.961 491.267 396.214 490.84C395.467 490.387 394.601 490.16 393.614 490.16C392.654 490.16 391.801 490.387 391.054 490.84C390.307 491.267 389.721 491.867 389.294 492.64C388.867 493.413 388.654 494.307 388.654 495.32C388.654 496.333 388.867 497.24 389.294 498.04C389.721 498.813 390.307 499.427 391.054 499.88C391.801 500.307 392.654 500.52 393.614 500.52ZM415.587 505.4C413.881 505.4 412.361 505.04 411.027 504.32C409.721 503.6 408.694 502.6 407.947 501.32C407.201 500.04 406.827 498.56 406.827 496.88V485.68H412.107V496.76C412.107 497.56 412.241 498.253 412.507 498.84C412.774 499.4 413.174 499.827 413.707 500.12C414.241 500.413 414.867 500.56 415.587 500.56C416.681 500.56 417.534 500.227 418.147 499.56C418.761 498.893 419.067 497.96 419.067 496.76V485.68H424.307V496.88C424.307 498.587 423.934 500.08 423.187 501.36C422.467 502.64 421.441 503.64 420.107 504.36C418.801 505.053 417.294 505.4 415.587 505.4ZM441.48 505V493.92C441.48 492.773 441.12 491.84 440.4 491.12C439.68 490.4 438.747 490.04 437.6 490.04C436.853 490.04 436.187 490.2 435.6 490.52C435.013 490.84 434.547 491.293 434.2 491.88C433.88 492.467 433.72 493.147 433.72 493.92L431.68 492.88C431.68 491.36 432 490.04 432.64 488.92C433.307 487.773 434.213 486.88 435.36 486.24C436.533 485.6 437.853 485.28 439.32 485.28C440.733 485.28 442 485.64 443.12 486.36C444.24 487.053 445.12 487.973 445.76 489.12C446.4 490.24 446.72 491.453 446.72 492.76V505H441.48ZM428.48 505V485.68H433.72V505H428.48ZM459.101 505.4C457.314 505.4 455.714 504.96 454.301 504.08C452.888 503.2 451.768 502 450.941 500.48C450.141 498.96 449.741 497.253 449.741 495.36C449.741 493.44 450.141 491.72 450.941 490.2C451.768 488.68 452.874 487.48 454.261 486.6C455.674 485.72 457.288 485.28 459.101 485.28C460.488 485.28 461.728 485.56 462.821 486.12C463.941 486.68 464.834 487.467 465.501 488.48C466.194 489.467 466.568 490.587 466.621 491.84V498.72C466.568 499.973 466.208 501.107 465.541 502.12C464.874 503.133 463.981 503.933 462.861 504.52C461.741 505.107 460.488 505.4 459.101 505.4ZM459.981 500.56C460.968 500.56 461.821 500.347 462.541 499.92C463.288 499.467 463.861 498.853 464.261 498.08C464.688 497.28 464.901 496.36 464.901 495.32C464.901 494.307 464.688 493.413 464.261 492.64C463.861 491.84 463.288 491.227 462.541 490.8C461.821 490.347 460.981 490.12 460.021 490.12C459.034 490.12 458.168 490.347 457.421 490.8C456.701 491.253 456.128 491.867 455.701 492.64C455.301 493.413 455.101 494.307 455.101 495.32C455.101 496.36 455.301 497.28 455.701 498.08C456.128 498.853 456.714 499.467 457.461 499.92C458.208 500.347 459.048 500.56 459.981 500.56ZM469.821 505H464.621V499.8L465.461 495.08L464.581 490.44V476.08H469.821V505Z" fill="#074A74"/>
</g>
<defs>
<clipPath id="clip0_4050_2400">
<rect width="650" height="512" fill="white"/>
</clipPath>
</defs>
</svg>
